<svg viewBox="0 0 270 90" xmlns="http://www.w3.org/2000/svg">

<g transform="translate(32, 45)">
  <line x1="0" y1="-24" x2="0" y2="-32" stroke="#03A9F4" stroke-width="1.5" stroke-linecap="round" opacity="0.9"/>
  <line x1="11" y1="-21" x2="15" y2="-28" stroke="#03A9F4" stroke-width="1.1" stroke-linecap="round" opacity="0.6"/>
  <line x1="-11" y1="-21" x2="-15" y2="-28" stroke="#03A9F4" stroke-width="1.1" stroke-linecap="round" opacity="0.6"/>
  <line x1="20" y1="-16" x2="26" y2="-22" stroke="#03A9F4" stroke-width="0.9" stroke-linecap="round" opacity="0.35"/>
  <line x1="-20" y1="-16" x2="-26" y2="-22" stroke="#03A9F4" stroke-width="0.9" stroke-linecap="round" opacity="0.35"/>

  <path d="M-30,0 Q-15,-20 0,-20 Q15,-20 30,0 Q15,20 0,20 Q-15,20 -30,0 Z" stroke="#03A9F4" stroke-width="2" fill="none" stroke-linejoin="round"/>
  <circle cx="0" cy="0" r="12" fill="#03A9F4" opacity="0.10"/>
  <circle cx="0" cy="0" r="11" stroke="#03A9F4" stroke-width="1.3" fill="none"/>
  <circle cx="0" cy="0" r="6" fill="#03A9F4" opacity="0.18"/>
  <circle cx="0" cy="0" r="4.2" fill="#025f8a"/>
  <circle cx="-1.5" cy="-1.5" r="1.6" fill="#ffffff" opacity="0.9"/>
  <circle cx="2" cy="1.2" r="0.7" fill="#ffffff" opacity="0.4"/>
</g>

<text x="72" y="30" font-family="Helvetica Neue, Helvetica, Arial, sans-serif" font-size="24" font-weight="500" letter-spacing="7" fill="#03A9F4">LUMA</text>
<text x="72" y="48" font-family="Helvetica Neue, Helvetica, Arial, sans-serif" font-size="11.5" font-weight="400" letter-spacing="0.5" fill="#333333">Dr.ssa Maria Luisa Carrella</text>
<line x1="72" y1="55" x2="170" y2="55" stroke="#03A9F4" stroke-width="0.4" opacity="0.3"/>
<text x="72" y="67" font-family="Helvetica Neue, Helvetica, Arial, sans-serif" font-size="7.5" font-weight="400" letter-spacing="2" fill="#888888">STUDIO MEDICO OCULISTICO</text>

</svg>
